<svg width="20" height="20" viewBox="0 0 20 20" fill="none" xmlns="http://www.w3.org/2000/svg">
<path d="M14.7583 9.40833L10.5917 5.24166C10.5124 5.16579 10.419 5.10632 10.3167 5.06666C10.1138 4.98331 9.88623 4.98331 9.68334 5.06666C9.58105 5.10632 9.48759 5.16579 9.40834 5.24166L5.24167 9.40833C5.16397 9.48603 5.10234 9.57827 5.06029 9.67979C5.01824 9.78131 4.9966 9.89011 4.9966 10C4.9966 10.2219 5.08475 10.4347 5.24167 10.5917C5.39859 10.7486 5.61142 10.8367 5.83334 10.8367C6.05526 10.8367 6.26809 10.7486 6.42501 10.5917L9.16667 7.84166V14.1667C9.16667 14.3877 9.25447 14.5996 9.41075 14.7559C9.56703 14.9122 9.77899 15 10 15C10.221 15 10.433 14.9122 10.5893 14.7559C10.7455 14.5996 10.8333 14.3877 10.8333 14.1667V7.84166L13.575 10.5917C13.6525 10.6698 13.7446 10.7318 13.8462 10.7741C13.9477 10.8164 14.0567 10.8382 14.1667 10.8382C14.2767 10.8382 14.3856 10.8164 14.4872 10.7741C14.5887 10.7318 14.6809 10.6698 14.7583 10.5917C14.8364 10.5142 14.8984 10.422 14.9408 10.3205C14.9831 10.2189 15.0048 10.11 15.0048 10C15.0048 9.88999 14.9831 9.78106 14.9408 9.67951C14.8984 9.57797 14.8364 9.4858 14.7583 9.40833Z" fill="#FFFF"/>
</svg>
