<svg width="90" height="90" viewBox="0 0 90 90" fill="none" xmlns="http://www.w3.org/2000/svg">
<path d="M62.7427 4.11749H57.5508L62.9501 9.97663V12.7659H51.8295V9.49991H57.2281L51.8295 3.64077V0.848663H62.7427V4.11749ZM49.6245 4.11749H44.4326L49.8319 9.97663V12.7659H38.7106V9.49991H44.1098L38.7106 3.64077V0.848663H49.6245V4.11749ZM36.6349 4.25109H31.0324V9.36351H36.6349V12.7659H27.0499V0.848663H36.6349V4.25109Z" fill="#131313"/>
<path d="M19.4154 82.0589L13.7222 18.206H76.2771L70.579 82.0484L44.9613 89.1513L19.4154 82.0589Z" fill="#1572B6"/>
<path d="M45.0007 83.7225L65.7 77.9836L70.5698 23.4274H45.0007V83.7225Z" fill="#33A9DC"/>
<path d="M45 46.5609H55.3627L56.0791 38.5418H45V30.7104H64.6376L64.4498 32.8113L62.5254 54.3916H45V46.5609Z" fill="white"/>
<path d="M45.0471 66.8995L45.0127 66.9094L36.2911 64.5539L35.7328 58.308H27.8726L28.9702 70.6043L45.0113 75.0572L45.0478 75.0466L45.0471 66.8995Z" fill="#EBEBEB"/>
<path d="M54.6975 54.0605L53.7539 64.5483L45.0197 66.9059V75.0537L61.0741 70.6043L61.1923 69.281L62.5549 54.0605H54.6975Z" fill="white"/>
<path d="M45.0274 30.7104V38.5411H26.1113L25.9538 36.7812L25.5973 32.8113L25.4095 30.7104H45.0274ZM45 46.5616V54.393H36.3888L36.232 52.6331L35.8749 48.6626L35.6871 46.5616H45Z" fill="#EBEBEB"/>
</svg>
