<svg width="20" height="20" viewBox="0 0 20 20" fill="none" xmlns="http://www.w3.org/2000/svg">
<path d="M15.8333 3.33331H4.16666C3.50362 3.33331 2.86773 3.59671 2.39889 4.06555C1.93005 4.53439 1.66666 5.17027 1.66666 5.83331V14.1666C1.66666 14.8297 1.93005 15.4656 2.39889 15.9344C2.86773 16.4033 3.50362 16.6666 4.16666 16.6666H15.8333C16.4964 16.6666 17.1322 16.4033 17.6011 15.9344C18.0699 15.4656 18.3333 14.8297 18.3333 14.1666V5.83331C18.3333 5.17027 18.0699 4.53439 17.6011 4.06555C17.1322 3.59671 16.4964 3.33331 15.8333 3.33331ZM15.275 4.99998L9.99999 8.95831L4.72499 4.99998H15.275ZM15.8333 15H4.16666C3.94564 15 3.73368 14.9122 3.5774 14.7559C3.42112 14.5996 3.33332 14.3877 3.33332 14.1666V6.04165L9.49999 10.6666C9.64424 10.7748 9.81968 10.8333 9.99999 10.8333C10.1803 10.8333 10.3557 10.7748 10.5 10.6666L16.6667 6.04165V14.1666C16.6667 14.3877 16.5789 14.5996 16.4226 14.7559C16.2663 14.9122 16.0543 15 15.8333 15Z" fill="#A4A7B6"/>
</svg>
