<svg width="20" height="20" viewBox="0 0 20 20" fill="none" xmlns="http://www.w3.org/2000/svg">
<path d="M16.6666 7.44999C16.658 7.37344 16.6412 7.29802 16.6166 7.22499V7.14999C16.5766 7.06431 16.5231 6.98554 16.4583 6.91666L11.4583 1.91666C11.3894 1.85184 11.3107 1.79839 11.225 1.75832H11.1416C11.0606 1.71499 10.9735 1.68409 10.8833 1.66666H5.83331C5.17027 1.66666 4.53439 1.93005 4.06555 2.39889C3.59671 2.86773 3.33331 3.50362 3.33331 4.16666V15.8333C3.33331 16.4964 3.59671 17.1322 4.06555 17.6011C4.53439 18.0699 5.17027 18.3333 5.83331 18.3333H14.1666C14.8297 18.3333 15.4656 18.0699 15.9344 17.6011C16.4033 17.1322 16.6666 16.4964 16.6666 15.8333V7.49999C16.6666 7.49999 16.6666 7.49999 16.6666 7.44999ZM11.6666 4.50832L13.825 6.66666H12.5C12.279 6.66666 12.067 6.57886 11.9107 6.42258C11.7544 6.2663 11.6666 6.05434 11.6666 5.83332V4.50832ZM15 15.8333C15 16.0543 14.9122 16.2663 14.7559 16.4226C14.5996 16.5789 14.3877 16.6667 14.1666 16.6667H5.83331C5.6123 16.6667 5.40034 16.5789 5.24406 16.4226C5.08778 16.2663 4.99998 16.0543 4.99998 15.8333V4.16666C4.99998 3.94564 5.08778 3.73368 5.24406 3.5774C5.40034 3.42112 5.6123 3.33332 5.83331 3.33332H9.99998V5.83332C9.99998 6.49636 10.2634 7.13225 10.7322 7.60109C11.2011 8.06993 11.8369 8.33332 12.5 8.33332H15V15.8333ZM9.99998 9.44999C9.48334 9.16861 8.88226 9.08393 8.30799 9.21161C7.73372 9.33929 7.22515 9.6707 6.87641 10.1445C6.52768 10.6183 6.3624 11.2024 6.41116 11.7886C6.45993 12.3749 6.71943 12.9237 7.14165 13.3333L9.40831 15.6C9.48578 15.6781 9.57795 15.7401 9.6795 15.7824C9.78105 15.8247 9.88997 15.8465 9.99998 15.8465C10.11 15.8465 10.2189 15.8247 10.3205 15.7824C10.422 15.7401 10.5142 15.6781 10.5916 15.6L12.8583 13.3333C13.2805 12.9237 13.54 12.3749 13.5888 11.7886C13.6376 11.2024 13.4723 10.6183 13.1235 10.1445C12.7748 9.6707 12.2662 9.33929 11.692 9.21161C11.1177 9.08393 10.5166 9.16861 9.99998 9.44999ZM11.6666 11.0583C11.8101 11.2021 11.8907 11.3969 11.8907 11.6C11.8907 11.8031 11.8101 11.9979 11.6666 12.1417L9.99998 13.8083L8.33331 12.1417C8.18981 11.9979 8.10921 11.8031 8.10921 11.6C8.10921 11.3969 8.18981 11.2021 8.33331 11.0583C8.47705 10.9148 8.67187 10.8342 8.87498 10.8342C9.07809 10.8342 9.27291 10.9148 9.41665 11.0583C9.49412 11.1364 9.58628 11.1984 9.68783 11.2407C9.78938 11.283 9.8983 11.3048 10.0083 11.3048C10.1183 11.3048 10.2272 11.283 10.3288 11.2407C10.4303 11.1984 10.5225 11.1364 10.6 11.0583C10.743 10.9198 10.9342 10.8424 11.1333 10.8424C11.3324 10.8424 11.5236 10.9198 11.6666 11.0583Z" fill="white"/>
</svg>
