<svg width="90" height="90" viewBox="0 0 90 90" fill="none" xmlns="http://www.w3.org/2000/svg">
<path d="M53.4403 35.5697C48.0579 35.5697 45.3832 38.3794 45.3832 42.4252C45.3832 45.0295 46.6854 46.8745 48.4094 47.719C47.565 48.4931 46.8619 49.1702 46.2283 49.8382C45.5941 50.5076 45.2074 51.2142 45.2074 51.9891C45.2074 52.9397 45.5941 53.8207 46.7557 54.3115C45.5245 55.4744 44.82 56.3182 44.82 57.9023C44.82 60.6818 47.2479 62.3011 53.6168 62.3011C59.7396 62.3011 63.2925 60.0152 63.2925 55.968C63.2925 51.2902 59.7044 51.1137 53.6168 50.7255L50.1686 50.5146L51.3302 48.6499C51.9623 48.8257 52.984 48.9663 54.1111 48.9663C58.5436 48.9663 61.605 46.6798 61.605 42.7732C61.605 41.1546 60.8055 40.0289 60.1727 39.2189L63.2812 38.9728V35.8594H56.6782C55.8696 35.8594 54.9534 35.5697 53.4403 35.5697ZM55.0237 55.6165C56.714 55.722 58.0514 55.7923 58.0514 56.9201C58.0514 58.8178 55.2705 58.9605 53.2308 58.9605C50.767 58.9605 48.9726 58.5373 48.9726 57.1303C48.9726 56.4258 49.4297 55.8281 49.8881 55.2656L55.0237 55.6165ZM53.6533 45.2721C51.3302 45.2721 50.3803 44.0747 50.3803 42.3513C50.3803 40.0641 51.8224 39.1134 53.7581 39.1134C55.7634 39.1134 56.9601 40.2047 56.9601 42.2803C56.9601 44.1112 55.6228 45.2721 53.6533 45.2721ZM69.731 32.8254C71.7715 32.8254 72.933 31.6638 72.933 29.6571C72.933 27.6532 71.7715 26.5612 69.731 26.5612C67.725 26.5612 66.5634 27.6532 66.5634 29.6571C66.5634 31.6631 67.725 32.8254 69.731 32.8254ZM72.4219 50.2418V35.8594H65.5783L65.1916 38.5987L67.0669 39.2133C67.4198 39.318 67.5 39.5107 67.5 39.8974V50.2418C67.5 50.7705 67.2033 50.876 66.7104 50.947L64.6875 51.1931V54.1406H75.2344V51.1931L73.2122 50.947C72.6827 50.876 72.4219 50.8064 72.4219 50.2418ZM88.1845 49.5105C87.3394 49.827 86.3339 50.0723 85.3474 50.0723C83.4483 50.0723 82.9687 49.2637 82.9687 47.1874V38.6719H87.8906V35.1562H83.2233C82.9413 35.1562 82.9687 35.1541 82.9687 34.908V30.2344H79.5986C79.2119 33.75 77.3437 35.2941 74.5312 35.647V38.6719H77.3458C77.6278 38.6719 77.3437 38.9201 77.3437 39.1303V48.349C77.3437 52.3266 79.0692 54.0148 83.2556 54.0148C85.2623 54.0148 87.5496 53.3461 89.0634 52.6078L88.1845 49.5105ZM20.9095 27.2855C20.6891 27.0651 20.4275 26.8903 20.1396 26.771C19.8517 26.6518 19.5431 26.5904 19.2315 26.5904C18.9199 26.5904 18.6113 26.6518 18.3234 26.771C18.0355 26.8903 17.7738 27.0651 17.5535 27.2855L14.2129 30.626L18.4507 34.8637C18.9504 34.6936 19.4879 34.6673 20.0019 34.7877C20.5158 34.9082 20.9856 35.1707 21.3577 35.5452C21.7297 35.9198 21.989 36.3913 22.1061 36.9061C22.2232 37.4208 22.1932 37.9581 22.0197 38.4567L26.1042 42.5412C26.7078 42.3313 27.3648 42.3325 27.9676 42.5448C28.5704 42.757 29.0833 43.1677 29.4223 43.7095C29.7612 44.2513 29.9061 44.8921 29.8333 45.527C29.7605 46.1619 29.4743 46.7533 29.0215 47.2043C28.7593 47.4667 28.4481 47.6749 28.1054 47.817C27.7628 47.959 27.3955 48.0321 27.0246 48.0321C26.6537 48.0321 26.2864 47.959 25.9438 47.817C25.6011 47.6749 25.2898 47.4667 25.0277 47.2043C24.198 46.3739 23.8858 45.1554 24.307 44.133L20.3906 40.3242V50.3487C20.3906 50.4816 21.0199 50.6587 21.2442 50.8823C22.3467 51.9848 22.4001 53.7722 21.2969 54.8768C21.0373 55.1387 20.7283 55.3467 20.3879 55.4886C20.0474 55.6305 19.6822 55.7035 19.3134 55.7035C18.9446 55.7035 18.5794 55.6305 18.239 55.4886C17.8985 55.3467 17.5895 55.1387 17.3299 54.8768C16.2274 53.7722 16.2408 51.9855 17.344 50.8823C17.6168 50.6102 17.5781 50.4042 18.2812 50.2664V40.1491C17.5781 40.0113 17.6294 39.8067 17.3573 39.5332C16.9612 39.1371 16.6918 38.632 16.5835 38.0824C16.4752 37.5327 16.5329 36.9633 16.7491 36.4465L12.5711 32.2678L1.53982 43.2991C1.31927 43.5195 1.14431 43.7811 1.02493 44.0691C0.905559 44.3571 0.844116 44.6658 0.844116 44.9775C0.844116 45.2892 0.905559 45.5979 1.02493 45.8859C1.14431 46.1739 1.31927 46.4355 1.53982 46.6559L17.6287 62.7441C18.0739 63.1888 18.6775 63.4385 19.3067 63.4385C19.936 63.4385 20.5395 63.1888 20.9847 62.7441L36.9984 46.7297C37.4431 46.2843 37.693 45.6807 37.693 45.0513C37.693 44.4219 37.4431 43.8183 36.9984 43.373L20.9095 27.2855Z" fill="#F34F29"/>
</svg>
