<svg width="21" height="21" viewBox="0 0 21 21" fill="none" xmlns="http://www.w3.org/2000/svg">
<path d="M10.8818 2.50852C9.78748 2.50852 8.70384 2.72407 7.6928 3.14286C6.68175 3.56165 5.76309 4.17548 4.98927 4.9493C3.42647 6.5121 2.54849 8.63172 2.54849 10.8419C2.54849 14.5252 4.94016 17.6502 8.24849 18.7585C8.66516 18.8252 8.79849 18.5669 8.79849 18.3419C8.79849 18.1502 8.79849 17.6252 8.79849 16.9335C6.49016 17.4335 5.99849 15.8169 5.99849 15.8169C5.61516 14.8502 5.07349 14.5919 5.07349 14.5919C4.31516 14.0752 5.13183 14.0919 5.13183 14.0919C5.96516 14.1502 6.40683 14.9502 6.40683 14.9502C7.13183 16.2169 8.35683 15.8419 8.83183 15.6419C8.90683 15.1002 9.12349 14.7335 9.35683 14.5252C7.50683 14.3169 5.56516 13.6002 5.56516 10.4252C5.56516 9.50019 5.88183 8.75852 6.42349 8.16686C6.34016 7.95852 6.04849 7.09186 6.50683 5.96686C6.50683 5.96686 7.20683 5.74186 8.79849 6.81686C9.45683 6.63352 10.1735 6.54186 10.8818 6.54186C11.5902 6.54186 12.3068 6.63352 12.9652 6.81686C14.5568 5.74186 15.2568 5.96686 15.2568 5.96686C15.7152 7.09186 15.4235 7.95852 15.3402 8.16686C15.8818 8.75852 16.1985 9.50019 16.1985 10.4252C16.1985 13.6085 14.2485 14.3085 12.3902 14.5169C12.6902 14.7752 12.9652 15.2835 12.9652 16.0585C12.9652 17.1752 12.9652 18.0752 12.9652 18.3419C12.9652 18.5669 13.0985 18.8335 13.5235 18.7585C16.8318 17.6419 19.2152 14.5252 19.2152 10.8419C19.2152 9.74751 18.9996 8.66387 18.5808 7.65283C18.162 6.64178 17.5482 5.72312 16.7744 4.9493C16.0006 4.17548 15.0819 3.56165 14.0709 3.14286C13.0598 2.72407 11.9762 2.50852 10.8818 2.50852Z" fill="#A4A7B6"/>
</svg>
