<svg width="90" height="90" viewBox="0 0 90 90" fill="none" xmlns="http://www.w3.org/2000/svg">
<path d="M19.5849 81.8114L13.9296 18.3818H76.0704L70.4095 81.8016L44.962 88.856L19.5849 81.8114Z" fill="#E44D26"/>
<path d="M45 83.4638L65.5622 77.7628L70.4004 23.5688H45V83.4638Z" fill="#F16529"/>
<path d="M45 47.0939H34.7056L33.9954 39.1268H45V31.3474H25.4932L25.6789 33.435L27.5914 54.8726H45V47.0939ZM45 67.2968L44.9656 67.3059L36.3024 64.9659L35.7483 58.7623H27.9387L29.0285 70.9769L44.9642 75.401L45 75.3905V67.2968Z" fill="#EBEBEB"/>
<path d="M19.7114 1.14398H23.6644V5.05054H27.2813V1.14398H31.2349V12.9719H27.2813V9.01125H23.6651V12.9719H19.7114V1.14398ZM36.4331 5.06672H32.9527V1.14398H43.8687V5.06672H40.3868V12.9719H36.4331V5.06672ZM45.6012 1.14398H49.7229L52.2591 5.30015L54.7924 1.14398H58.9163V12.9719H54.9781V7.10929L52.2591 11.3147H52.1902L49.4691 7.10929V12.9719H45.6005V1.14398H45.6012ZM60.8843 1.14398H64.8387V9.06258H70.3983V12.9727H60.8843V1.14398Z" fill="black"/>
<path d="M44.9733 47.0939V54.8726H54.5526L53.6498 64.9617L44.9733 67.3038V75.3968L60.9215 70.9769L61.0383 69.6621L62.8664 49.1822L63.0562 47.0939H60.9595H44.9733ZM44.9733 31.3474V39.1268H63.7643L63.9197 37.3781L64.2748 33.435L64.4611 31.3474H44.9733Z" fill="white"/>
</svg>
