<svg width="90" height="90" viewBox="0 0 90 90" fill="none" xmlns="http://www.w3.org/2000/svg">
<g clip-path="url(#clip0_221_38)">
<path d="M0.990002 0.98999H89.01V89.0107H0.990002V0.98999Z" fill="#F0DB4F"/>
<path d="M81.8065 68.0175C81.1617 64.0019 78.5433 60.6291 70.7871 57.484C68.0927 56.2458 65.089 55.3591 64.1939 53.3173C63.8761 52.129 63.8339 51.4596 64.035 50.7403C64.6123 48.4059 67.3988 47.6782 69.6073 48.3476C71.0297 48.8243 72.3762 49.9205 73.1883 51.6691C76.9866 49.2096 76.9788 49.2258 79.631 47.5355C78.66 46.0301 78.1418 45.3354 77.5062 44.6913C75.2217 42.1397 72.109 40.8255 67.1309 40.9261L64.5377 41.2615C62.0529 41.8894 59.6848 43.1937 58.2961 44.9423C54.1294 49.6701 55.3177 57.9445 60.3879 61.3498C65.3829 65.0988 72.7207 65.9517 73.658 69.4575C74.5699 73.7494 70.5038 75.1387 66.4622 74.6451C63.4838 74.0257 61.8272 72.5119 60.0363 69.7591C56.7401 71.6667 56.7401 71.6667 53.351 73.6158C54.1547 75.3729 54.9991 76.1681 56.3463 77.6904C62.7223 84.1577 78.6776 83.8399 81.5393 74.051C81.6553 73.7149 82.4259 71.4733 81.8065 68.0175ZM48.8405 41.4443H40.6076L40.5738 62.7293C40.5738 67.256 40.808 71.4058 40.0718 72.6778C38.8673 75.1795 35.7462 74.8694 34.3238 74.3843C32.876 73.6727 32.1398 72.6609 31.287 71.2308C31.0528 70.8201 30.877 70.5023 30.818 70.4777L24.1242 74.5769C25.2373 76.8614 26.877 78.8442 28.9772 80.1323C32.1145 82.0153 36.3312 82.5926 40.7412 81.5801C43.6113 80.7441 46.0877 79.0123 47.3843 76.3762C49.2588 72.9204 48.8566 68.7375 48.8398 64.1109C48.882 56.5629 48.8405 49.0162 48.8405 41.4443Z" fill="#323330"/>
</g>
<defs>
<clipPath id="clip0_221_38">
<rect width="90" height="90" fill="white"/>
</clipPath>
</defs>
</svg>
