<svg width="20" height="20" viewBox="0 0 20 20" fill="none" xmlns="http://www.w3.org/2000/svg">
<path d="M14.5833 7.49919C13.8373 7.49887 13.1028 7.68341 12.4455 8.0363C12.3855 7.87832 12.2789 7.74233 12.1398 7.64639C12.0007 7.55046 11.8357 7.49912 11.6667 7.49919H8.33334C8.22389 7.49913 8.1155 7.52064 8.01436 7.5625C7.91323 7.60436 7.82134 7.66574 7.74395 7.74313C7.66655 7.82053 7.60517 7.91242 7.56331 8.01355C7.52146 8.11468 7.49994 8.22307 7.50001 8.33253V18.3325C7.49994 18.442 7.52145 18.5504 7.56331 18.6515C7.60517 18.7526 7.66655 18.8445 7.74394 18.9219C7.82134 18.9993 7.91323 19.0607 8.01436 19.1026C8.1155 19.1444 8.22389 19.1659 8.33334 19.1659H11.6667C11.7761 19.1659 11.8845 19.1444 11.9857 19.1026C12.0868 19.0607 12.1787 18.9993 12.2561 18.9219C12.3335 18.8445 12.3948 18.7526 12.4367 18.6515C12.4786 18.5504 12.5001 18.442 12.5 18.3325V13.7492C12.5 13.5282 12.5878 13.3162 12.7441 13.1599C12.9004 13.0037 13.1123 12.9159 13.3333 12.9159C13.5544 12.9159 13.7663 13.0037 13.9226 13.1599C14.0789 13.3162 14.1667 13.5282 14.1667 13.7492V18.3325C14.1666 18.442 14.1881 18.5504 14.23 18.6515C14.2718 18.7526 14.3332 18.8445 14.4106 18.9219C14.488 18.9993 14.5799 19.0607 14.681 19.1026C14.7822 19.1444 14.8906 19.1659 15 19.1659H18.3333C18.4428 19.1659 18.5512 19.1444 18.6523 19.1026C18.7535 19.0607 18.8453 18.9993 18.9227 18.9219C19.0001 18.8445 19.0615 18.7526 19.1034 18.6515C19.1452 18.5504 19.1667 18.442 19.1667 18.3325V12.0825C19.1652 10.8674 18.6818 9.7025 17.8226 8.84329C16.9634 7.98407 15.7985 7.5007 14.5833 7.49919ZM17.5 17.4992H15.8333V13.7492C15.8333 13.0862 15.5699 12.4503 15.1011 11.9814C14.6323 11.5126 13.9964 11.2492 13.3333 11.2492C12.6703 11.2492 12.0344 11.5126 11.5656 11.9814C11.0967 12.4503 10.8333 13.0862 10.8333 13.7492V17.4992H9.16667V9.16586H10.8333V9.7518C10.8334 9.92447 10.8871 10.0928 10.987 10.2337C11.0869 10.3745 11.2281 10.4809 11.391 10.538C11.554 10.5952 11.7306 10.6004 11.8966 10.5528C12.0626 10.5053 12.2097 10.4074 12.3177 10.2726C12.6917 9.79766 13.2047 9.45133 13.785 9.282C14.3653 9.11267 14.9841 9.12879 15.5548 9.32812C16.1255 9.52744 16.6197 9.90001 16.9685 10.3938C17.3172 10.8876 17.503 11.478 17.5 12.0825V17.4992ZM5.83334 7.49919H2.50001C2.39055 7.49913 2.28216 7.52064 2.18103 7.5625C2.0799 7.60436 1.98801 7.66574 1.91061 7.74313C1.83322 7.82053 1.77184 7.91242 1.72998 8.01355C1.68812 8.11468 1.66661 8.22307 1.66667 8.33253V18.3325C1.66661 18.442 1.68812 18.5504 1.72998 18.6515C1.77183 18.7526 1.83321 18.8445 1.91061 18.9219C1.988 18.9993 2.07989 19.0607 2.18103 19.1026C2.28216 19.1444 2.39055 19.1659 2.50001 19.1659H5.83334C5.94279 19.1659 6.05118 19.1444 6.15232 19.1026C6.25345 19.0607 6.34534 18.9993 6.42274 18.9219C6.50013 18.8445 6.56151 18.7526 6.60337 18.6515C6.64523 18.5504 6.66674 18.442 6.66667 18.3325V8.33253C6.66674 8.22307 6.64522 8.11468 6.60337 8.01355C6.56151 7.91242 6.50013 7.82053 6.42273 7.74313C6.34534 7.66574 6.25345 7.60436 6.15232 7.5625C6.05118 7.52064 5.94279 7.49913 5.83334 7.49919ZM5.00001 17.4992H3.33334V9.16586H5.00001V17.4992ZM4.17888 1.28503C3.81418 1.2632 3.44885 1.31577 3.10511 1.43956C2.76137 1.56335 2.4464 1.75577 2.17935 2.0051C1.91231 2.25444 1.69877 2.55549 1.55172 2.88994C1.40467 3.2244 1.32719 3.58526 1.32399 3.9506C1.32078 4.31594 1.39192 4.67811 1.53308 5.01509C1.67423 5.35208 1.88246 5.65683 2.14509 5.91081C2.40772 6.16479 2.71926 6.3627 3.06078 6.49251C3.4023 6.62231 3.76665 6.68129 4.13167 6.66586H4.15527C4.52094 6.68758 4.88719 6.63451 5.23165 6.5099C5.57611 6.38529 5.89155 6.19175 6.15869 5.94112C6.42583 5.69048 6.63906 5.388 6.78535 5.05218C6.93164 4.71635 7.00791 4.35421 7.00952 3.98791C7.01113 3.6216 6.93803 3.25882 6.79469 2.92172C6.65135 2.58462 6.44078 2.28029 6.17586 2.02731C5.91093 1.77434 5.5972 1.57805 5.25384 1.45042C4.91049 1.32279 4.54472 1.26651 4.17888 1.28503ZM4.15528 4.99919H4.13167C3.98756 5.01669 3.84137 5.00318 3.70292 4.95955C3.56446 4.91592 3.43693 4.8432 3.32888 4.74625C3.22083 4.6493 3.13475 4.53036 3.07643 4.39742C3.01811 4.26448 2.98889 4.12061 2.99073 3.97545C2.99073 3.3537 3.45704 2.95168 4.17888 2.95168C4.32446 2.93228 4.47251 2.94429 4.61306 2.98692C4.75361 3.02955 4.88339 3.1018 4.99366 3.19881C5.10393 3.29582 5.19214 3.41533 5.25233 3.5493C5.31252 3.68327 5.34331 3.82858 5.34261 3.97545C5.34261 4.59719 4.87631 4.99919 4.15528 4.99919Z" fill="#A4A7B6"/>
</svg>
