<svg width="20" height="20" viewBox="0 0 20 20" fill="none" xmlns="http://www.w3.org/2000/svg">
<path d="M9.99999 7.29169C8.50424 7.29169 7.29166 8.50427 7.29166 10C7.29166 11.4958 8.50424 12.7084 9.99999 12.7084C11.4957 12.7084 12.7083 11.4958 12.7083 10C12.7083 8.50427 11.4957 7.29169 9.99999 7.29169Z" fill="white"/>
<path fill-rule="evenodd" clip-rule="evenodd" d="M7.19478 6.21858C7.44226 6.45919 7.44782 6.85489 7.2072 7.10237C5.65314 8.70077 5.65314 11.2993 7.2072 12.8977C7.44782 13.1452 7.44226 13.5409 7.19478 13.7814C6.94728 14.0221 6.5516 14.0165 6.31098 13.769C4.28522 11.6855 4.28522 8.31453 6.31098 6.231C6.5516 5.98352 6.94728 5.97795 7.19478 6.21858ZM12.8052 6.21858C13.0527 5.97795 13.4484 5.98352 13.689 6.231C15.7147 8.31453 15.7147 11.6855 13.689 13.769C13.4484 14.0165 13.0527 14.0221 12.8052 13.7814C12.5577 13.5409 12.5522 13.1452 12.7928 12.8977C14.3468 11.2993 14.3468 8.70077 12.7928 7.10237C12.5522 6.85489 12.5577 6.45919 12.8052 6.21858Z" fill="white"/>
<path fill-rule="evenodd" clip-rule="evenodd" d="M5.43364 4.55844C5.67751 4.80273 5.67716 5.19846 5.43287 5.44233C2.91125 7.95958 2.91125 12.0404 5.43287 14.5577C5.67716 14.8016 5.67751 15.1973 5.43364 15.4416C5.18977 15.6858 4.79405 15.6862 4.54976 15.4423C1.53896 12.4368 1.53896 7.56327 4.54976 4.55768C4.79405 4.31381 5.18977 4.31415 5.43364 4.55844ZM14.5663 4.55844C14.8102 4.31415 15.2059 4.31381 15.4502 4.55768C18.461 7.56327 18.461 12.4368 15.4502 15.4423C15.2059 15.6862 14.8102 15.6858 14.5663 15.4416C14.3225 15.1973 14.3228 14.8016 14.5671 14.5577C17.0887 12.0404 17.0887 7.95958 14.5671 5.44233C14.3228 5.19846 14.3225 4.80273 14.5663 4.55844Z" fill="white"/>
</svg>
