<svg width="90" height="90" viewBox="0 0 90 90" fill="none" xmlns="http://www.w3.org/2000/svg">
<path d="M21.2344 32.2734H38.1797V33.6094H22.7813V43.7344H37.2656V45.0703H22.7813V56.1797H38.3906V57.5156H21.2344V32.2734ZM39.7266 32.2734H41.5547L49.5703 43.3828L57.6562 32.2734L68.7656 18.2109L50.4844 44.5781L59.9062 57.5156H58.0078L49.5 45.7031L40.9219 57.5156H39.0937L48.5859 44.5781L39.7266 32.2734ZM60.6094 33.6094V32.2734H79.9453V33.6094H71.0156V57.5156H69.4688V33.6094H60.6094ZM0 32.2734H1.89844L28.7578 72.2109L17.6484 57.5156L1.61719 34.1719L1.54688 57.5156H0V32.2734ZM79.8047 55.7578C80.1562 55.7578 80.3672 55.5469 80.3672 55.1953C80.3672 54.8437 80.1562 54.6328 79.8047 54.6328C79.4531 54.6328 79.2422 54.8437 79.2422 55.1953C79.2422 55.5469 79.5234 55.7578 79.8047 55.7578ZM81.3516 54.2812C81.3516 55.1953 82.0547 55.8281 83.0391 55.8281C84.0937 55.8281 84.7266 55.1953 84.7266 54.0703V50.2031H83.8828V54.0703C83.8828 54.7031 83.6016 54.9844 83.0391 54.9844C82.5469 54.9844 82.1953 54.7031 82.1953 54.2109H81.3516V54.2812ZM85.7812 54.2109C85.8516 55.1953 86.625 55.8281 87.8906 55.8281C89.1562 55.8281 90 55.1953 90 54.1406C90 53.2969 89.5078 52.875 88.4531 52.5938L87.8203 52.4531C87.1172 52.3125 86.8359 52.0312 86.8359 51.6797C86.8359 51.1875 87.2578 50.8359 87.9609 50.8359C88.5937 50.8359 89.0156 51.1172 89.0859 51.6797H89.9297C89.8594 50.7656 89.0859 50.1328 87.9609 50.1328C86.7656 50.1328 85.9922 50.7656 85.9922 51.75C85.9922 52.5234 86.4141 53.0156 87.3984 53.2266L88.1016 53.3672C88.8047 53.5078 89.1563 53.7891 89.1563 54.2109C89.1563 54.7031 88.6641 55.0547 87.9609 55.0547C87.2578 55.0547 86.6953 54.7031 86.625 54.2109H85.7812Z" fill="black"/>
</svg>
