<svg width="20" height="20" viewBox="0 0 20 20" fill="none" xmlns="http://www.w3.org/2000/svg">
<path d="M10 18.6165C8.86801 18.6184 7.74678 18.3967 6.70069 17.9642C5.65459 17.5316 4.70423 16.8967 3.90415 16.0958C0.542773 12.7345 0.542773 7.2655 3.90415 3.90412C7.26484 0.543434 12.7352 0.543434 16.0959 3.90412C19.4573 7.2655 19.4573 12.7345 16.0959 16.0958C15.2958 16.8967 14.3454 17.5316 13.2993 17.9642C12.2532 18.3967 11.132 18.6184 10 18.6165ZM10 2.76205C9.04911 2.7604 8.10725 2.94659 7.22849 3.30993C6.34974 3.67326 5.55141 4.20659 4.87932 4.8793C2.05588 7.70274 2.05588 12.2972 4.87932 15.1207C7.70277 17.9441 12.2973 17.9441 15.1207 15.1207C17.9442 12.2972 17.9442 7.70274 15.1207 4.8793C14.4486 4.20659 13.6503 3.67326 12.7715 3.30993C11.8928 2.94659 10.9509 2.7604 10 2.76205ZM12.6883 14.5662C12.2515 14.5662 11.8222 14.4524 11.4428 14.2358C9.22305 12.9747 7.36548 11.1632 6.04898 8.97585L5.80484 8.56895C5.51884 8.09326 5.40039 7.53548 5.46839 6.98461C5.53639 6.43374 5.78692 5.92151 6.18001 5.52964L6.66484 5.04481C6.92084 4.78939 7.2677 4.64594 7.62932 4.64594C7.99095 4.64594 8.33781 4.78939 8.59381 5.04481L9.66346 6.11378C10.0945 6.54619 10.1862 7.21792 9.88691 7.74826L9.57519 8.30274L11.6973 10.4248L12.251 10.1124C12.5108 9.96695 12.8109 9.91015 13.1058 9.9506C13.4008 9.99104 13.6745 10.1265 13.8855 10.3365L14.9552 11.4062C15.2106 11.6622 15.3541 12.009 15.3541 12.3707C15.3541 12.7323 15.2106 13.0792 14.9552 13.3352L14.449 13.8414C14.2175 14.0719 13.9429 14.2546 13.6408 14.379C13.3387 14.5034 13.015 14.567 12.6883 14.5662ZM7.62967 6.03033L7.15519 6.50481C6.97986 6.67952 6.86815 6.90795 6.83789 7.1536C6.80764 7.39925 6.86059 7.64796 6.98829 7.85999L7.23243 8.26688C8.41581 10.2365 10.0843 11.8698 12.0786 13.011C12.5759 13.2938 13.1159 13.2241 13.4731 12.8662L13.9793 12.36L12.9097 11.3117L12.2152 11.7158C11.9984 11.8375 11.7477 11.8851 11.5014 11.8513C11.2551 11.8176 11.0265 11.7044 10.8504 11.529L8.47036 9.14964C8.29539 8.9732 8.18254 8.74465 8.14883 8.49846C8.11512 8.25227 8.16237 8.0018 8.28346 7.78481L8.68484 7.0724L7.62967 6.03033Z" fill="#A4A7B6"/>
</svg>
