<svg width="90" height="90" viewBox="0 0 90 90" fill="none" xmlns="http://www.w3.org/2000/svg">
<path fill-rule="evenodd" clip-rule="evenodd" d="M0.856934 39.4847C0.856934 39.979 1.00248 40.3052 1.08404 40.6223C1.61561 42.6846 2.75818 44.4544 4.11381 46.0687C6.04459 48.3694 8.4092 50.2214 10.8315 51.963C12.9324 53.4734 15.0762 54.9499 17.1856 56.449C17.5477 56.7063 17.8901 57.0023 18.2832 57.318C17.945 57.5009 17.6637 57.6619 17.3712 57.8102C14.5876 59.2221 11.9094 60.8048 9.44068 62.7223C7.95287 63.8782 6.51428 65.1066 5.49826 66.7118C3.8635 69.2937 3.28482 72.0443 4.50334 74.9812C4.85912 75.8391 5.40193 76.5802 6.16764 77.1279C6.41584 77.3051 6.69428 77.4809 6.98467 77.5498C7.72857 77.7248 8.48654 77.8395 9.23959 77.978L11.3722 77.9766C13.7304 77.7663 15.8771 76.9584 17.817 75.6197C20.8489 73.5272 22.8915 70.7217 23.7697 67.121C24.4081 64.504 24.4341 61.8841 23.6818 59.2791C23.6098 59.0377 23.5267 58.7998 23.4329 58.5661C23.3415 58.332 23.2339 58.1041 23.1073 57.8123L27.942 55.0322L28.0144 55.0941C27.9265 55.3816 27.833 55.6685 27.7536 55.9589C27.1791 58.057 26.7973 60.1917 26.9344 62.3693C27.0807 64.6896 27.7283 66.8616 29.0867 68.8001C30.185 70.368 32.802 70.4264 33.9692 68.8528C34.3833 68.2938 34.7848 67.7095 35.0865 67.0859C35.8747 65.4581 36.6045 63.8016 37.3576 62.1563L37.489 61.8553C37.4349 62.6344 37.3716 63.3185 37.3428 64.0034C37.2978 65.0728 37.3604 66.1359 37.726 67.1534C38.0389 68.0238 38.5712 68.6742 39.5682 68.7888C40.2502 68.8669 40.7937 68.5547 41.2951 68.1588C42.0717 67.5451 42.7155 66.7798 43.1872 65.9095C44.5238 63.4549 45.8963 61.0151 47.1078 58.4986C48.4184 55.7768 49.5645 52.9755 50.7816 50.2073L50.9827 49.7166C51.2703 50.8465 51.4707 51.9532 51.8398 53.0009C52.2687 54.2166 52.7996 55.4034 53.3776 56.5573C53.6511 57.1022 53.6194 57.4559 53.2404 57.9129C51.6542 59.8254 50.0954 61.7611 48.5351 63.6947C48.1899 64.1215 47.8461 64.556 47.5585 65.0222C47.384 65.3166 47.2693 65.6425 47.221 65.9812C47.1726 66.2931 47.2468 66.6116 47.4281 66.87C47.6094 67.1284 47.8837 67.3065 48.1934 67.3671C48.8186 67.5017 49.4596 67.5474 50.0975 67.5028C52.2751 67.3425 54.2522 66.5782 56.0002 65.283C58.265 63.6054 58.992 61.316 58.4436 58.6027C58.2952 57.8665 58.0329 57.1507 57.7777 56.4413C57.6631 56.1213 57.6554 55.897 57.8642 55.5989C59.6747 53.0135 61.2216 50.2706 62.6602 47.4645C62.7172 47.3541 62.7755 47.2437 62.8754 47.1255C63.3415 49.5513 64.0433 51.8892 65.3004 54.0105C64.6592 54.6286 64.0243 55.189 63.4498 55.8063C62.1849 57.1662 61.088 58.6427 60.5157 60.4434C60.2696 61.2197 60.0804 62.0086 60.1901 62.8376C60.3603 64.125 61.415 64.9617 62.6813 64.6685C65.3912 64.0413 67.7304 62.7645 69.4397 60.5025C70.5901 58.9795 70.6948 57.2808 70.2132 55.5012C70.081 55.0174 69.9242 54.5414 69.7554 53.9866C70.4241 53.7792 71.0759 53.5303 71.7502 53.3763C75.2511 52.5776 78.714 52.7168 82.0876 53.981C84.057 54.7193 85.6482 55.9547 86.5918 57.8981C87.7442 60.274 87.1072 62.5282 84.8677 64.0301C84.6589 64.17 84.4198 64.2804 84.2469 64.4555C84.1914 64.5197 84.15 64.5947 84.1252 64.6758C84.1004 64.7569 84.0927 64.8423 84.1027 64.9266C84.1175 65.013 84.346 65.1213 84.4775 65.1199C85.2137 65.1143 85.8106 64.7283 86.3837 64.3317C87.8194 63.3382 88.8671 62.0016 89.0928 60.2416L89.1371 60.1095L89.0829 58.9634C89.0612 58.8973 89.0991 58.8319 89.0942 58.782C88.789 56.2191 87.4201 54.2313 85.4288 52.6732C83.1226 50.8697 80.3994 50.1272 77.5194 50.0098C75.1836 49.9092 72.8508 50.2683 70.6533 51.0666C70.0226 51.2951 69.3976 51.5658 68.7633 51.821C68.6783 51.667 68.5869 51.5194 68.5116 51.3668C67.8605 50.0337 67.0716 48.7596 66.8972 47.231C66.7735 46.1454 66.6216 45.0612 66.8797 43.9875C67.1279 42.9546 67.4513 41.9393 67.7558 40.9205C67.9126 40.3959 67.8022 40.102 67.3015 39.8658C67.1271 39.7788 66.9409 39.7177 66.7489 39.6844C65.5184 39.5058 64.3048 39.6077 63.113 39.9544C62.6912 40.0774 62.3846 40.3137 62.2911 40.7805C62.2376 41.0484 62.1286 41.3051 62.0527 41.5695C61.7412 42.6684 61.5204 43.7885 61.017 44.8355C59.7556 47.4616 58.3156 49.9887 56.8419 52.4974C56.6822 52.7681 56.5142 53.0339 56.3131 53.3623C55.7956 52.2795 55.2437 51.3077 55.0763 50.1687C54.8872 48.8805 54.7381 47.5945 55.0587 46.3163C55.2971 45.3628 55.6086 44.427 55.8954 43.4862C56.0312 43.039 55.9686 42.8041 55.5636 42.5686C55.359 42.4498 55.1276 42.3443 54.897 42.3098C53.6353 42.1177 52.3462 42.2231 51.1325 42.6178C50.7507 42.7416 50.5503 42.9884 50.4336 43.3821C50.0904 44.5437 49.7979 45.7334 49.3163 46.838C47.3658 51.3098 45.3591 55.7585 43.3545 60.2065C42.9362 61.1353 42.4461 62.0318 41.9743 62.936C41.8547 63.1652 41.6804 63.367 41.5313 63.5822C41.4118 63.4409 41.3654 63.3438 41.3661 63.2468C41.3696 62.6752 41.3014 62.0866 41.4104 61.534C41.745 59.8625 42.115 58.1983 42.5199 56.5425C42.8504 55.1742 43.235 53.8186 43.6013 52.4595C43.7244 52.0045 43.7265 51.5791 43.3995 51.1966C42.8504 50.5561 41.7029 50.4155 41.0222 50.9091L40.7213 51.0792L40.7797 50.5941C40.9231 49.5541 40.9519 48.5177 40.6665 47.4933C40.3107 46.2164 39.3994 45.4816 38.0747 45.5224C37.4574 45.5414 36.8091 45.6469 36.2375 45.8719C33.8335 46.8141 31.985 48.4826 30.4114 50.49C30.2655 50.6764 30.0847 50.8326 29.8791 50.9498C27.845 52.0777 25.8045 53.1914 23.7647 54.3094L21.4944 55.5532C20.8854 54.9724 20.3321 54.3698 19.7042 53.8587C17.7868 52.2949 15.8384 50.7698 13.9076 49.2237C12.1962 47.8533 10.5383 46.4259 9.26982 44.6112C8.32623 43.2612 7.71803 41.7839 7.65967 40.1147C7.58584 37.9877 8.18912 36.0443 9.27193 34.2352C10.6571 31.9205 12.5464 30.0628 14.6234 28.3802C16.8207 26.6013 19.1972 25.091 21.6603 23.7122C25.1063 21.7835 28.6508 20.0763 32.4512 18.9492C36.3479 17.7933 40.3015 17.1316 44.3797 17.5929C45.9828 17.7743 47.5395 18.1413 48.969 18.9253C50.0637 19.5251 50.9616 20.3105 51.3793 21.5381C51.7913 22.7461 51.7787 23.9702 51.4932 25.1972C50.9131 27.682 49.5526 29.7302 47.8404 31.5605C45.0322 34.5607 41.6065 36.6033 37.7499 37.9526C35.5324 38.7294 33.2253 39.2215 30.8839 39.4172C28.9651 39.5782 27.0863 39.408 25.2694 38.7408C24.0664 38.2985 23.0187 37.6221 22.1764 36.6405C22.0259 36.4648 21.8333 36.2742 21.5527 36.4388C21.2778 36.6005 21.2293 36.862 21.3214 37.1271C21.4754 37.5673 21.6174 38.0257 21.8572 38.4195C22.4597 39.4073 23.3387 40.1238 24.3062 40.7384C26.1645 41.9203 28.2415 42.3176 30.3952 42.4097C33.6633 42.551 36.852 42.063 39.9957 41.1863C44.4837 39.9347 48.3861 37.7241 51.5157 34.2366C54.1215 31.3327 55.9826 28.0554 56.3813 24.0982C56.5761 22.1667 56.3687 20.2746 55.4644 18.5126C54.4836 16.6036 52.924 15.184 51.0594 14.2059C48.3439 12.7821 45.4133 11.9531 42.3884 11.9531H39.3579C35.6947 11.9531 32.153 13.0029 28.7105 14.2552C26.1047 15.2037 23.5496 16.323 21.069 17.562C15.6669 20.2612 10.636 23.516 6.50373 27.9914C4.44498 30.221 2.70193 32.6812 1.69928 35.5781C1.39666 36.443 1.13596 37.322 0.918105 38.212M20.4924 63.5337C20.2583 66.6689 18.8372 69.2107 16.5148 71.2695C15.2084 72.4268 13.7101 73.2509 11.9649 73.5405C11.3321 73.6453 10.6845 73.6706 10.0707 73.4084C9.19529 73.0343 8.99912 72.2573 8.98225 71.4298C8.95623 70.1107 9.41818 68.9182 10.0517 67.7834C10.8786 66.304 12.0908 65.1762 13.3852 64.1229C15.4243 62.4628 17.6363 61.058 19.9018 59.7319L20.0726 59.6616C20.4228 60.9553 20.5894 62.2329 20.4924 63.5337ZM38.1816 49.9078C38.0164 50.9091 37.8097 51.911 37.5172 52.8813C36.5061 56.2402 35.2074 59.4949 33.8033 62.7061C33.5438 63.3002 33.1662 63.8423 32.8379 64.4055C32.782 64.4921 32.7151 64.5711 32.6389 64.6404C32.2325 65.0419 31.8472 65.0208 31.6419 64.4955C31.4028 63.8852 31.2558 63.232 31.1293 62.5859C31.0442 62.152 31.0646 61.6964 31.0379 61.252C31.0653 58.0922 32.0293 55.2206 33.6647 52.5473C34.339 51.4448 35.0731 50.3944 36.1946 49.6969C36.5435 49.48 36.9209 49.3129 37.3161 49.2005C37.9137 49.0324 38.2808 49.3088 38.1816 49.9078ZM50.2501 65.2837L54.5876 60.2191C54.7683 62.1 51.5712 65.8547 50.2501 65.2837ZM64.1037 61.8757C63.7972 62.0515 63.4632 62.178 63.1489 62.3405C62.8613 62.4895 62.7664 62.3391 62.7579 62.0916C62.7537 61.9202 62.7758 61.7493 62.8233 61.5846C63.409 59.5188 64.4869 57.7554 66.0908 56.321L66.2033 56.2634C66.9661 58.3973 66.0844 60.7409 64.1037 61.8757Z" fill="#CB6699"/>
</svg>
