<svg width="20" height="20" viewBox="0 0 20 20" fill="none" xmlns="http://www.w3.org/2000/svg">
<g clip-path="url(#clip0_213_4)">
<path d="M19.681 1.81761C19.6561 1.16633 18.9353 0.764868 18.3527 1.02962L0.841965 9.32416C0.19354 9.60772 0.122134 10.5877 0.730847 10.9569L4.83489 13.6402V18.1171C4.81088 18.9242 5.87736 19.3756 6.43623 18.7803L8.91142 16.3054L12.3755 18.5702C12.53 18.6713 12.709 18.7232 12.8891 18.7232C13.2744 18.7263 13.6393 18.4737 13.7692 18.1097L19.6346 2.20187C19.6786 2.07643 19.6989 1.94686 19.681 1.81761ZM14.2618 5.04347L6.69203 12.613L3.15845 10.3028L14.2618 5.04347ZM6.71105 15.8525V14.8668L7.30715 15.2565L6.71105 15.8525ZM12.4164 16.3554L8.29626 13.6618L16.396 5.56228L12.4164 16.3554Z" fill="white"/>
</g>
<defs>
<clipPath id="clip0_213_4">
<rect width="20" height="20" fill="white"/>
</clipPath>
</defs>
</svg>
