<svg width="90" height="90" viewBox="0 0 90 90" fill="none" xmlns="http://www.w3.org/2000/svg">
<g clip-path="url(#clip0_221_31)">
<path d="M9.30023 39.427C6.81961 39.427 5.27344 40.6772 4.6582 43.1543C5.58914 41.9077 6.67969 41.4485 7.91016 41.7642C8.61328 41.94 9.12445 42.4512 9.68414 43.0305C10.5989 43.9615 11.6536 45.0359 13.9584 45.0359C16.4355 45.0359 17.9817 43.7857 18.597 41.3086C17.666 42.5552 16.5755 43.0144 15.345 42.6987C14.6419 42.5229 14.1342 42.0117 13.571 41.4323C12.6563 40.5014 11.6016 39.427 9.30023 39.427ZM4.64203 45C2.16141 45 0.615234 46.2466 0 48.7266C0.930938 47.4771 2.02148 47.0215 3.25195 47.3372C3.95508 47.513 4.46625 48.0241 5.02594 48.6035C5.9407 49.5345 6.99539 50.6088 9.30023 50.6088C11.7773 50.6088 13.3235 49.3587 13.9387 46.8816C13.0078 48.1282 11.9173 48.5873 10.6868 48.2681C9.98367 48.0923 9.47602 47.5847 8.91281 47.0053C8.01422 46.0709 6.95953 45 4.64203 45Z" fill="url(#paint0_linear_221_31)"/>
<path d="M27.8972 44.1211H26.2793V47.269C26.2793 48.112 26.8228 48.0923 27.8965 48.0403V49.3066C25.7168 49.5703 24.8569 48.9712 24.8569 47.269V44.1211H23.6588V42.7669H24.8569V41.0091L26.2631 40.5893V42.7669H27.8775V44.1211H27.8972ZM34.0847 42.7669H35.4909V49.3066H34.0847V48.356C33.5904 49.043 32.8191 49.4662 31.7995 49.4662C30.0227 49.4662 28.5483 47.9524 28.5483 46.0188C28.5483 44.0691 30.0227 42.5749 31.8002 42.5749C32.8191 42.5749 33.5904 42.9947 34.0854 43.6816L34.0847 42.7669ZM32.0084 48.1282C33.1868 48.1282 34.0854 47.2493 34.0854 46.0385C34.0854 44.8242 33.1868 43.9453 32.0084 43.9453C30.8334 43.9453 29.9348 44.8242 29.9348 46.0385C29.9545 47.2493 30.8327 48.1282 32.0084 48.1282ZM37.845 41.7839C37.3535 41.7839 36.9499 41.3606 36.9499 40.8853C36.9499 40.3938 37.3535 39.9902 37.845 39.9902C38.3372 39.9902 38.7436 40.3938 38.7436 40.8853C38.7598 41.3606 38.3365 41.7839 37.845 41.7839ZM37.1419 49.3066V42.7676H38.5481V49.3066H37.1419ZM40.1822 49.3066V39.7624H41.5884V49.3066H40.1822ZM50.7846 42.7676H52.2788L50.2214 49.3066H48.8313L47.4771 44.8959L46.1067 49.3066H44.7202L42.6628 42.7676H44.1563L45.4219 47.2852L46.793 42.7669H48.1472L49.4979 47.2852L50.7846 42.7676ZM54.0169 41.7832C53.5254 41.7832 53.1218 41.3613 53.1218 40.8853C53.1218 40.3938 53.5254 39.9902 54.0169 39.9902C54.5091 39.9902 54.9155 40.3938 54.9155 40.8853C54.9316 41.3606 54.528 41.7832 54.0169 41.7832ZM53.3138 49.3066V42.7676H54.72V49.3066H53.3138ZM59.8015 42.5918C61.2598 42.5918 62.3145 43.5938 62.3145 45.2798V49.3066H60.9082V45.4395C60.9082 44.4368 60.3288 43.9291 59.4499 43.9291C58.519 43.9291 57.78 44.4727 57.78 45.8072V49.3228H56.3738V42.7866H57.78V43.6296C58.2195 42.9265 58.9226 42.5918 59.8015 42.5918ZM69.03 40.1498H70.4363V49.3066H69.03V48.356C68.5378 49.043 67.7637 49.4662 66.7448 49.4662C64.9673 49.4662 63.4929 47.9524 63.4929 46.0188C63.4929 44.0691 64.9673 42.5749 66.7448 42.5749C67.7637 42.5749 68.5378 42.9947 69.03 43.6816V40.1498ZM66.9558 48.1282C68.1314 48.1282 69.03 47.2493 69.03 46.0385C69.03 44.8242 68.1314 43.9453 66.9558 43.9453C65.778 43.9453 64.8795 44.8242 64.8795 46.0385C64.8795 47.2493 65.7773 48.1282 66.9558 48.1282ZM75.1627 49.4824C73.1967 49.4824 71.7026 47.9721 71.7026 46.0385C71.7026 44.0852 73.177 42.5911 75.1627 42.5911C76.4487 42.5911 77.5554 43.2591 78.0827 44.2807L76.8684 44.9838C76.5886 44.3686 75.9375 43.9812 75.1465 43.9812C73.9877 43.9812 73.125 44.8601 73.125 46.0385C73.125 47.2134 74.0039 48.0923 75.1465 48.0923C75.9375 48.0923 76.5689 47.6887 76.8881 47.0932L78.0989 47.7766C77.5716 48.8152 76.4487 49.4824 75.1627 49.4824ZM80.4558 44.5605C80.4558 45.7559 83.9714 45.0359 83.9714 47.4609C83.9714 48.7631 82.8288 49.4824 81.4226 49.4824C80.1204 49.4824 79.1726 48.8834 78.75 47.9524L79.9643 47.2493C80.1724 47.8484 80.6998 48.1999 81.4226 48.1999C82.054 48.1999 82.5293 47.9883 82.5293 47.4609C82.5293 46.3022 79.0137 46.9498 79.0137 44.6133C79.0137 43.3828 80.0684 42.6108 81.4029 42.6108C82.4773 42.6108 83.3723 43.1023 83.8315 43.9615L82.6334 44.6323C82.4055 44.1211 81.9499 43.8933 81.4029 43.8933C80.8952 43.8736 80.4558 44.1042 80.4558 44.5605ZM86.4844 44.5605C86.4844 45.7559 90 45.0359 90 47.4609C90 48.7631 88.8574 49.4824 87.4512 49.4824C86.149 49.4824 85.2012 48.8834 84.7793 47.9524L85.9929 47.2493C86.2038 47.8484 86.7312 48.1999 87.4512 48.1999C88.0826 48.1999 88.5579 47.9883 88.5579 47.4609C88.5579 46.3022 85.0423 46.9498 85.0423 44.6133C85.0423 43.3828 86.097 42.6108 87.435 42.6108C88.5059 42.6108 89.4009 43.1023 89.8601 43.9615L88.6648 44.6323C88.4341 44.1211 87.9785 43.8933 87.4343 43.8933C86.9238 43.8736 86.4844 44.1042 86.4844 44.5605Z" fill="#2D3748"/>
</g>
<defs>
<linearGradient id="paint0_linear_221_31" x1="-0.497585" y1="42.9719" x2="15.5705" y2="52.2363" gradientUnits="userSpaceOnUse">
<stop stop-color="#2298BD"/>
<stop offset="1" stop-color="#0ED7B5"/>
</linearGradient>
<clipPath id="clip0_221_31">
<rect width="90" height="90" fill="white"/>
</clipPath>
</defs>
</svg>
