<svg width="90" height="90" viewBox="0 0 90 90" fill="none" xmlns="http://www.w3.org/2000/svg">
<path d="M15.9398 33.0469H86.0203V84.8461H15.9398V33.0469Z" fill="white"/>
<path d="M1.05469 44.9367V88.882H88.9453V0.991394H1.05469V44.9367ZM71.8805 41.4211C73.9855 41.9096 75.8988 43.0106 77.3789 44.5851C78.1937 45.4334 78.9021 46.3779 79.4883 47.3976C79.4883 47.5101 75.6914 50.0765 73.3781 51.5109C73.2938 51.5672 72.9563 51.2015 72.5836 50.6461C72.1613 49.9174 71.5613 49.3076 70.8395 48.8736C70.1178 48.4395 69.2979 48.1954 68.4563 48.164C65.7914 47.9812 64.0758 49.3805 64.0898 51.6797C64.0678 52.2521 64.1989 52.8201 64.4695 53.325C65.0531 54.5414 66.143 55.2656 69.5602 56.7422C75.8531 59.4492 78.5461 61.2351 80.2195 63.7734C82.0898 66.5859 82.5047 71.1281 81.2391 74.489C79.8328 78.1453 76.3875 80.6273 71.5148 81.45C69.2893 81.7049 67.0407 81.6813 64.8211 81.3797C61.4191 80.8189 58.2854 79.1855 55.8773 76.718C55.0688 75.825 53.4938 73.4976 53.5922 73.3289C53.8489 73.1383 54.1191 72.9668 54.4008 72.8156L57.6562 71.0156L60.1805 69.5531L60.7078 70.3336C61.5978 71.6067 62.7304 72.6915 64.0406 73.5258C66.8531 75.0023 70.6922 74.7984 72.5906 73.0898C73.228 72.4637 73.6257 71.6339 73.7143 70.7449C73.803 69.8558 73.577 68.9638 73.0758 68.2242C72.3727 67.2469 70.9664 66.4242 67.0359 64.7086C62.5008 62.7539 60.5461 61.5445 58.7602 59.618C57.6452 58.3466 56.8221 56.8467 56.3484 55.2234C55.9951 53.3689 55.9429 51.4696 56.1937 49.5984C57.1289 45.218 60.4125 42.1594 65.2078 41.2523C67.4286 40.9775 69.6781 41.0392 71.8805 41.4351V41.4211ZM51.2508 45.1055V48.7055H39.8391V81.2109H31.7461V48.6984H20.3062V45.1828C20.2706 43.9704 20.2988 42.757 20.3906 41.5476C20.4469 41.4844 27.4219 41.4844 35.8594 41.4844H51.2086L51.2508 45.1055Z" fill="#007ACC"/>
</svg>
