<svg width="432" height="200" viewBox="0 0 432 200" fill="none" xmlns="http://www.w3.org/2000/svg">
<path d="M0 0H432V200H0V0Z" fill="#D9DFE3"/>
<circle cx="216" cy="100" r="63" stroke="#A2BEFF" stroke-width="14"/>
<path d="M181.849 94.8182V105H180.004V94.8182H181.849ZM185.566 100.526V105H183.767V97.3636H185.487V98.6612H185.576C185.752 98.2337 186.032 97.8939 186.416 97.642C186.804 97.3902 187.283 97.2642 187.853 97.2642C188.38 97.2642 188.839 97.3769 189.23 97.6023C189.625 97.8277 189.93 98.1541 190.145 98.5817C190.364 99.0092 190.472 99.5279 190.468 100.138V105H188.669V100.416C188.669 99.9058 188.536 99.5064 188.271 99.218C188.009 98.9297 187.646 98.7855 187.182 98.7855C186.867 98.7855 186.587 98.8551 186.342 98.9943C186.1 99.1302 185.909 99.3274 185.77 99.5859C185.634 99.8445 185.566 100.158 185.566 100.526ZM195.77 107.864V97.3636H197.54V98.6264H197.645C197.738 98.4408 197.868 98.2436 198.037 98.0348C198.206 97.8227 198.435 97.642 198.724 97.4929C199.012 97.3404 199.38 97.2642 199.827 97.2642C200.417 97.2642 200.949 97.415 201.423 97.7166C201.9 98.0149 202.278 98.4574 202.557 99.044C202.838 99.6274 202.979 100.343 202.979 101.192C202.979 102.03 202.842 102.743 202.567 103.33C202.291 103.916 201.917 104.364 201.443 104.672C200.969 104.98 200.432 105.134 199.832 105.134C199.395 105.134 199.032 105.061 198.743 104.915C198.455 104.77 198.223 104.594 198.047 104.388C197.875 104.18 197.741 103.982 197.645 103.797H197.57V107.864H195.77ZM197.535 101.182C197.535 101.676 197.605 102.108 197.744 102.479C197.887 102.851 198.09 103.141 198.356 103.349C198.624 103.555 198.949 103.658 199.33 103.658C199.728 103.658 200.061 103.552 200.329 103.339C200.598 103.124 200.8 102.831 200.936 102.46C201.075 102.085 201.145 101.659 201.145 101.182C201.145 100.708 201.077 100.287 200.941 99.919C200.805 99.5511 200.603 99.2628 200.334 99.054C200.066 98.8452 199.731 98.7408 199.33 98.7408C198.946 98.7408 198.619 98.8419 198.351 99.044C198.082 99.2462 197.878 99.5296 197.739 99.8942C197.603 100.259 197.535 100.688 197.535 101.182ZM204.52 105V97.3636H206.265V98.6364H206.345C206.484 98.1955 206.723 97.8558 207.061 97.6172C207.402 97.3752 207.792 97.2543 208.229 97.2543C208.329 97.2543 208.44 97.2592 208.562 97.2692C208.688 97.2758 208.793 97.2874 208.876 97.304V98.9595C208.799 98.933 208.678 98.9098 208.513 98.8899C208.35 98.8667 208.193 98.8551 208.04 98.8551C207.712 98.8551 207.417 98.9264 207.155 99.0689C206.897 99.2081 206.693 99.402 206.544 99.6506C206.395 99.8991 206.32 100.186 206.32 100.511V105H204.52ZM213.088 105.149C212.342 105.149 211.696 104.985 211.149 104.657C210.602 104.329 210.178 103.87 209.876 103.28C209.578 102.69 209.429 102 209.429 101.212C209.429 100.423 209.578 99.7318 209.876 99.1385C210.178 98.5452 210.602 98.0845 211.149 97.7564C211.696 97.4283 212.342 97.2642 213.088 97.2642C213.833 97.2642 214.48 97.4283 215.027 97.7564C215.574 98.0845 215.996 98.5452 216.294 99.1385C216.596 99.7318 216.747 100.423 216.747 101.212C216.747 102 216.596 102.69 216.294 103.28C215.996 103.87 215.574 104.329 215.027 104.657C214.48 104.985 213.833 105.149 213.088 105.149ZM213.098 103.707C213.502 103.707 213.84 103.596 214.112 103.374C214.384 103.149 214.586 102.847 214.718 102.469C214.854 102.092 214.922 101.671 214.922 101.207C214.922 100.739 214.854 100.317 214.718 99.9389C214.586 99.5578 214.384 99.2545 214.112 99.0291C213.84 98.8037 213.502 98.6911 213.098 98.6911C212.683 98.6911 212.339 98.8037 212.064 99.0291C211.792 99.2545 211.588 99.5578 211.452 99.9389C211.319 100.317 211.253 100.739 211.253 101.207C211.253 101.671 211.319 102.092 211.452 102.469C211.588 102.847 211.792 103.149 212.064 103.374C212.339 103.596 212.683 103.707 213.098 103.707ZM221.595 108.023C220.949 108.023 220.394 107.935 219.93 107.759C219.466 107.587 219.093 107.355 218.811 107.063C218.53 106.772 218.334 106.448 218.225 106.094L219.845 105.701C219.918 105.85 220.024 105.998 220.164 106.143C220.303 106.293 220.49 106.415 220.725 106.511C220.964 106.611 221.264 106.661 221.625 106.661C222.136 106.661 222.558 106.536 222.893 106.288C223.228 106.042 223.395 105.638 223.395 105.075V103.628H223.306C223.213 103.813 223.077 104.004 222.898 104.2C222.722 104.395 222.489 104.559 222.197 104.692C221.909 104.824 221.546 104.891 221.108 104.891C220.521 104.891 219.99 104.753 219.512 104.478C219.038 104.2 218.66 103.785 218.379 103.235C218.1 102.682 217.961 101.989 217.961 101.157C217.961 100.318 218.1 99.6108 218.379 99.0341C218.66 98.4541 219.04 98.0149 219.517 97.7166C219.994 97.415 220.526 97.2642 221.113 97.2642C221.561 97.2642 221.928 97.3404 222.217 97.4929C222.508 97.642 222.74 97.8227 222.913 98.0348C223.085 98.2436 223.216 98.4408 223.306 98.6264H223.405V97.3636H225.18V105.124C225.18 105.777 225.024 106.317 224.713 106.745C224.401 107.173 223.975 107.492 223.435 107.705C222.895 107.917 222.281 108.023 221.595 108.023ZM221.61 103.479C221.991 103.479 222.316 103.386 222.585 103.2C222.853 103.015 223.057 102.748 223.196 102.4C223.335 102.052 223.405 101.634 223.405 101.147C223.405 100.666 223.335 100.246 223.196 99.8842C223.06 99.523 222.858 99.2429 222.59 99.044C222.325 98.8419 221.998 98.7408 221.61 98.7408C221.209 98.7408 220.874 98.8452 220.606 99.054C220.338 99.2628 220.135 99.5495 219.999 99.9141C219.864 100.275 219.796 100.686 219.796 101.147C219.796 101.614 219.864 102.024 219.999 102.375C220.139 102.723 220.343 102.995 220.611 103.19C220.883 103.383 221.216 103.479 221.61 103.479ZM227.024 105V97.3636H228.769V98.6364H228.849C228.988 98.1955 229.227 97.8558 229.565 97.6172C229.906 97.3752 230.296 97.2543 230.733 97.2543C230.833 97.2543 230.944 97.2592 231.066 97.2692C231.192 97.2758 231.297 97.2874 231.379 97.304V98.9595C231.303 98.933 231.182 98.9098 231.017 98.8899C230.854 98.8667 230.697 98.8551 230.544 98.8551C230.216 98.8551 229.921 98.9264 229.659 99.0689C229.401 99.2081 229.197 99.402 229.048 99.6506C228.899 99.8991 228.824 100.186 228.824 100.511V105H227.024ZM235.641 105.149C234.876 105.149 234.214 104.99 233.658 104.672C233.104 104.35 232.678 103.896 232.38 103.31C232.082 102.72 231.933 102.025 231.933 101.227C231.933 100.441 232.082 99.7517 232.38 99.1584C232.682 98.5618 233.103 98.0978 233.643 97.7663C234.183 97.4316 234.818 97.2642 235.547 97.2642C236.018 97.2642 236.462 97.3404 236.879 97.4929C237.3 97.642 237.671 97.8741 237.993 98.1889C238.318 98.5038 238.573 98.9048 238.759 99.392C238.944 99.8759 239.037 100.453 239.037 101.122V101.674H232.778V100.461H237.312C237.308 100.116 237.234 99.8097 237.088 99.5412C236.942 99.2694 236.738 99.0556 236.477 98.8999C236.218 98.7441 235.916 98.6662 235.572 98.6662C235.204 98.6662 234.881 98.7557 234.602 98.9347C234.324 99.1103 234.107 99.3423 233.951 99.6307C233.799 99.9157 233.721 100.229 233.717 100.57V101.629C233.717 102.073 233.799 102.455 233.961 102.773C234.123 103.088 234.35 103.33 234.642 103.499C234.934 103.664 235.275 103.747 235.666 103.747C235.928 103.747 236.165 103.711 236.377 103.638C236.589 103.562 236.773 103.451 236.929 103.305C237.085 103.159 237.202 102.978 237.282 102.763L238.962 102.952C238.856 103.396 238.654 103.784 238.356 104.115C238.061 104.443 237.683 104.698 237.222 104.881C236.762 105.06 236.235 105.149 235.641 105.149ZM246.595 99.3821L244.954 99.5611C244.908 99.3954 244.827 99.2396 244.711 99.0938C244.598 98.9479 244.446 98.8303 244.253 98.7408C244.061 98.6513 243.826 98.6065 243.547 98.6065C243.173 98.6065 242.858 98.6877 242.603 98.8501C242.351 99.0125 242.227 99.223 242.23 99.4815C242.227 99.7036 242.308 99.8842 242.474 100.023C242.643 100.163 242.921 100.277 243.309 100.366L244.611 100.645C245.334 100.801 245.871 101.048 246.222 101.386C246.577 101.724 246.756 102.166 246.759 102.713C246.756 103.194 246.615 103.618 246.336 103.986C246.061 104.35 245.679 104.635 245.188 104.841C244.698 105.046 244.134 105.149 243.498 105.149C242.563 105.149 241.811 104.954 241.241 104.562C240.671 104.168 240.331 103.62 240.221 102.917L241.976 102.748C242.056 103.093 242.225 103.353 242.483 103.528C242.742 103.704 243.078 103.792 243.493 103.792C243.92 103.792 244.263 103.704 244.522 103.528C244.784 103.353 244.915 103.136 244.915 102.877C244.915 102.658 244.83 102.478 244.661 102.335C244.495 102.193 244.237 102.083 243.885 102.007L242.583 101.734C241.85 101.581 241.309 101.324 240.957 100.963C240.606 100.598 240.432 100.138 240.435 99.581C240.432 99.1103 240.559 98.7027 240.818 98.358C241.08 98.0099 241.443 97.7415 241.907 97.5526C242.374 97.3603 242.913 97.2642 243.523 97.2642C244.417 97.2642 245.122 97.4548 245.635 97.8359C246.153 98.2171 246.472 98.7325 246.595 99.3821ZM254.279 99.3821L252.638 99.5611C252.592 99.3954 252.51 99.2396 252.394 99.0938C252.282 98.9479 252.129 98.8303 251.937 98.7408C251.745 98.6513 251.509 98.6065 251.231 98.6065C250.856 98.6065 250.542 98.6877 250.286 98.8501C250.035 99.0125 249.91 99.223 249.914 99.4815C249.91 99.7036 249.991 99.8842 250.157 100.023C250.326 100.163 250.605 100.277 250.992 100.366L252.295 100.645C253.017 100.801 253.554 101.048 253.906 101.386C254.26 101.724 254.439 102.166 254.443 102.713C254.439 103.194 254.298 103.618 254.02 103.986C253.745 104.35 253.362 104.635 252.872 104.841C252.381 105.046 251.818 105.149 251.181 105.149C250.247 105.149 249.494 104.954 248.924 104.562C248.354 104.168 248.014 103.62 247.905 102.917L249.66 102.748C249.74 103.093 249.909 103.353 250.167 103.528C250.426 103.704 250.762 103.792 251.176 103.792C251.604 103.792 251.947 103.704 252.205 103.528C252.467 103.353 252.598 103.136 252.598 102.877C252.598 102.658 252.514 102.478 252.345 102.335C252.179 102.193 251.92 102.083 251.569 102.007L250.267 101.734C249.534 101.581 248.992 101.324 248.641 100.963C248.289 100.598 248.115 100.138 248.119 99.581C248.115 99.1103 248.243 98.7027 248.502 98.358C248.763 98.0099 249.126 97.7415 249.59 97.5526C250.058 97.3603 250.596 97.2642 251.206 97.2642C252.101 97.2642 252.805 97.4548 253.319 97.8359C253.836 98.2171 254.156 98.7325 254.279 99.3821Z" fill="#868686"/>
</svg>
